<mxfile host="app.diagrams.net" modified="2023-09-18T16:35:33.276Z" agent="Mozilla/5.0 (Macintosh; Intel Mac OS X 10_15_7) AppleWebKit/537.36 (KHTML, like Gecko) Chrome/115.0.0.0 Safari/537.36 OPR/101.0.0.0" version="21.7.5" etag="EaVh5iLzbdqFyTYTk0wJ" type="github">
  <diagram name="PÃ¡gina-1" id="NGAEtAhWn1XYVP4PlauD">
    <mxGraphModel>
      <root>
        <mxCell id="0" />
        <mxCell id="1" parent="0" />
      </root>
    </mxGraphModel>
  </diagram>
</mxfile>
